<?xml version="1.0" encoding="UTF-8"?>
<svg width="99px" height="68px" viewBox="0 0 99 68" version="1.1" xmlns="http://www.w3.org/2000/svg" xmlns:xlink="http://www.w3.org/1999/xlink">
    <!-- Generator: Sketch 52.6 (67491) - http://www.bohemiancoding.com/sketch -->
    <title>Group 51@1x</title>
    <desc>Created with Sketch.</desc>
    <defs>
        <polygon id="path-1" points="3.83693077e-13 67.7834175 73.5909288 67.7834175 73.5909288 17.85 3.83693077e-13 17.85"></polygon>
    </defs>
    <g id="Page-1" stroke="none" stroke-width="1" fill="none" fill-rule="evenodd">
        <g id="BasicPage" transform="translate(-87.000000, -3.000000)">
            <g id="Group" transform="translate(81.000000, 3.000000)">
                <g id="Group-51">
                    <mask id="mask-2" fill="white">
                        <use xlink:href="#path-1"></use>
                    </mask>
                    <g id="Fill-6"></g>
                    <path d="M31.8488397,29.7270413 L32.3027732,29.0126975 L33.0959847,29.2100088 L34.5123424,28.7263608 L33.8175897,27.4329236 L34.3508017,27.0408692 L34.3508017,27.0181848 L39.1087918,27.4945566 L39.2179063,27.4885645 L41.0511156,27.2493086 L42.2117362,27.5878622 L42.617932,27.4260755 C40.6662312,26.9826602 38.6352518,26.7481124 36.5505676,26.7481124 C32.6301168,26.7481124 28.9006163,27.57545 25.5265906,29.0657704 L25.5730495,29.0606343 L27.9505527,28.8175263 L28.2284538,28.4267559 L30.7312683,28.7815737 L30.5522522,29.4770852 L31.8488397,29.7270413 Z M47.6482822,42.9237818 L46.7433989,42.8835492 L46.6368417,42.7778314 L45.6705814,40.9369732 L45.6837945,40.8950285 L45.5878931,39.3649034 L46.9143165,40.98705 L46.8393003,41.5554434 L47.7603804,42.9182177 L47.6482822,42.9237818 Z M46.7191038,44.9559592 L47.0110704,43.4048617 L47.0639228,43.359921 L49.1260169,44.2938323 L49.0706071,44.2972564 L46.7191038,44.9559592 Z M45.2618282,49.4821335 L44.5001576,49.3571554 L44.4805511,49.1636962 L44.312617,48.2845698 C44.4251414,48.2584614 44.5150756,48.2118086 44.5832722,48.1471795 L45.8858269,47.6301471 L46.954382,46.9235075 C46.8606117,46.8768547 46.9352017,46.6988038 46.8269397,46.6457309 L47.0860867,45.4203468 L47.8643801,45.4550154 L48.3255595,47.4520961 L48.1034944,47.503457 L46.4130717,48.2558933 L46.3146129,48.2524693 L45.3232051,48.4001317 L45.2618282,49.4821335 Z M11.7091111,50.1425483 L12.8756989,50.0774912 L12.2534051,48.173288 L12.0228154,48.0251975 L11.1038665,46.6440189 L10.9346537,46.6735514 L10.1938684,46.71464 L10.1687209,46.715496 C10.096262,46.9680202 10.0280655,47.2214004 9.96327871,47.4747805 L10.1627537,48.5345259 L11.7091111,50.1425483 Z M42.7926858,56.8134658 L41.7987206,56.0635975 L41.6759668,55.8671422 L42.2799328,54.8621817 L42.8608824,55.2756365 C42.8425545,55.3595259 43.0398984,55.546137 43.0518328,55.6270303 L43.2832749,56.6649473 C43.1281277,56.6709394 42.8728168,56.708176 42.7926858,56.8134658 Z M57.2247869,60.7404302 L56.8347877,60.5161545 L57.2844589,60.2914508 L57.2857376,60.2833187 L57.303213,60.2820347 L57.2844589,60.2914508 L57.2247869,60.7404302 Z M52.4791574,57.4815847 L51.7856835,57.0831102 L52.5852883,56.6837796 L52.5869933,56.6687994 L52.6185342,56.6666594 L52.5852883,56.6837796 L52.4791574,57.4815847 Z M44.7060261,58.9256804 L43.4917007,58.227173 L44.8918617,57.5278095 L44.8952716,57.5017011 L44.9498288,57.498277 L44.8918617,57.5278095 L44.7060261,58.9256804 Z M26.8393747,60.6312884 L25.8083277,60.1651888 L25.752918,60.1686128 L25.6830165,59.0420983 L26.9872761,59.4517011 L26.998358,60.5028863 L26.8393747,60.6312884 Z M44.2350434,62.0633999 L42.429539,61.643097 L42.3178671,61.6482331 L42.7760629,60.9758341 C42.8540627,60.9270413 42.8860298,60.8161874 42.8711118,60.7387182 L43.8842573,60.9142011 L44.1694042,61.0160667 L44.2350434,62.0633999 Z M39.9650851,62.1502853 L37.9422041,61.0888279 L40.9594765,58.65518 C41.0596402,58.5734306 41.0732795,58.5631585 41.1721646,58.4814091 L42.0693758,58.5918349 L42.1823264,58.6273595 L40.9309192,61.8532485 L39.9650851,62.1502853 Z M55.1251847,63.5438762 L53.086107,62.9737709 L52.9723039,62.9382463 L50.1468344,63.1402656 L50.0914247,63.1436896 L49.8054253,62.1511414 L48.1051993,61.642241 L47.2663814,60.7207419 L47.1726111,60.7130378 L47.4692662,60.3856124 L47.5255284,60.3830443 L48.9990007,60.8213235 L50.4959156,60.7370061 L50.5513254,60.7327261 L54.7671527,62.2722673 L54.8251197,62.3090759 L55.1251847,63.5438762 Z M40.4633464,64.016824 L36.3553549,63.2793679 L34.0153598,61.4774583 L34.7182108,61.152173 L36.7231902,62.2423068 L37.5142705,62.2453029 L37.5696803,62.2423068 L39.3922338,62.9070018 L39.4467911,62.9027217 L43.0940294,63.3825176 L42.9508166,63.7523156 L40.4633464,64.016824 Z M50.0049003,74.135766 L49.1183447,72.5328797 L48.9593615,72.1048727 L48.7637225,72.1074407 L48.1571992,72.181486 L46.8393003,71.3862489 L41.2782955,72.5337357 L41.2228858,72.5363038 L39.9910851,72.4053336 L40.3026582,71.1748134 L40.300527,71.1354368 L39.6518071,68.7886743 L40.3674449,67.7777217 L43.2998978,66.640507 L44.6842884,65.6526668 L47.5557906,64.4204346 L48.5194935,64.0309482 L49.4128687,64.1221137 L49.3195247,64.1576383 L49.5211308,65.3787423 L50.6041777,66.0442932 L52.0895845,63.9658911 L52.6585997,64.1281058 L53.6653517,66.6173946 L55.9090191,68.1907485 L55.8710848,68.3080224 L55.2082993,71.0515474 L55.213414,71.1320127 L53.4172866,73.5369842 L51.7784376,73.9936677 L50.0049003,74.135766 Z M51.2904058,76.6259109 L50.6301777,76.1217186 L52.1901744,75.2241879 L52.0648632,76.2163082 L51.2904058,76.6259109 Z M63.9860515,54.2980685 C63.9860515,45.1584065 59.544323,37.0528095 52.7127307,32.0399912 L52.1961416,32.9670544 L50.0560477,34.3020083 L50.6570301,35.0368964 L50.772538,35.1122256 L51.2904058,36.2528644 L51.3500778,36.3299056 L51.3973892,39.7210053 L50.2610637,39.340935 L48.6592965,36.8871708 L48.6465097,36.6834394 L49.0880825,34.3747695 L48.9256894,32.3083516 L48.2586416,32.3049276 L48.5859852,33.0937445 L48.330248,33.4318701 L47.1555619,33.3372805 L47.06989,33.7468832 L47.0741523,33.7871159 L46.4458913,35.1721466 L44.9430092,35.3232331 L41.9696383,36.7031277 L41.7207208,38.9377524 L43.9038638,39.1367757 L44.0129783,39.092691 L44.7439604,40.3189311 L44.6608458,43.8050483 L42.9090462,45.4152107 L43.6438643,48.2413411 L43.6481266,48.3226624 L43.0586524,48.6800483 L41.1052467,46.7899693 L40.315445,46.653007 L40.1082979,46.0187006 L39.1842343,46.3542581 L39.0043658,46.4283033 L39.534168,47.506881 L40.8806242,47.6716637 L40.445871,49.5951273 L40.4492808,49.636644 L41.2322628,50.1515364 L41.5306228,50.9065408 L41.586885,50.9437774 L40.1095766,53.0893766 L38.4097769,54.3969381 L37.1728614,54.1247256 L36.0923719,54.7419118 L37.4639756,57.499989 L36.3898794,58.1265913 L34.1057203,57.2072322 L36.3915844,59.9049605 L36.8186654,61.4149693 L36.064667,61.7804873 L32.7511657,58.656892 L32.4694286,56.1209504 L31.6924138,56.0225088 L29.8945815,53.9727831 L29.779926,53.8995939 L26.8359649,55.2589442 L24.8424936,58.656036 L24.3216423,59.1375439 L23.2790871,58.4035119 L22.3588595,55.6278863 L17.6260169,53.5422081 L15.5085131,53.8858977 L11.4947181,52.9468503 L11.0701944,53.2498793 L13.043633,54.5176361 L13.0406494,54.4709833 L15.5085131,54.6028095 L15.959463,55.2033033 L13.5482876,57.2282046 L10.5438021,58.1265913 L9.22760811,56.8186018 C9.27875555,57.3844271 9.34737836,57.9442603 9.43219785,58.4981014 L11.4921608,59.0284021 L13.1177967,58.9094162 L13.0295674,59.7102173 L10.3208845,62.3784131 L10.3166222,62.3826932 C13.759697,73.64955 24.207413,81.8480246 36.5505676,81.8480246 C51.6931918,81.8480246 63.9860515,69.50473 63.9860515,54.2980685 Z M6.59223655,54.2980685 C6.59223655,37.69268 20.0133234,24.2147388 36.5505676,24.2147388 C53.0869594,24.2147388 66.5088987,37.69268 66.5088987,54.2980685 C66.5088987,70.903885 53.0869594,84.3813982 36.5505676,84.3813982 C20.0133234,84.3813982 6.59223655,70.903885 6.59223655,54.2980685 Z" id="Fill-4" fill="#FFFFFF" mask="url(#mask-2)"></path>
                    <path d="M59.6631982,62.2037434 C59.6631982,62.2037434 60.0080172,62.1665068 59.6631982,62.2037434 C49.0692858,63.3533703 43.2653307,55.3397948 43.0313312,46.6435481 C43.0168394,46.0944151 43.0313312,46.6435481 43.0313312,46.6435481 L78.6235522,24.8477184 L80.8352525,26.9167043 L59.6631982,62.2037434 Z" id="Fill-2" fill="#FFFFFF" opacity="0.488816034"></path>
                    <path d="M104.791442,37.8212212 L101.531278,34.5449889 C101.440558,34.4537669 101.313408,34.3989896 101.185929,34.3989896 C101.052862,34.3989896 100.925383,34.4537669 100.834608,34.5449889 L97.9988987,37.3950594 L97.9988439,37.3950044 L97.9986248,37.3947842 L97.1566169,36.5486815 L99.9923263,33.6986111 C100.186147,33.5101662 100.186147,33.1932287 99.9923263,32.9984527 L96.7321617,29.7226609 C96.5443123,29.5274445 96.2293126,29.5274445 96.0354919,29.7226609 L96.0113876,29.746829 L93.1997826,32.572346 L93.1997278,32.5722359 L92.1575992,31.5250263 L92.1574897,31.5248611 L92.1574349,31.5248061 L94.9690947,28.699289 C95.1569989,28.5108992 95.1569989,28.1939066 94.9690947,27.9991858 L91.7089301,24.7229535 C91.5151094,24.5281776 91.2001645,24.5281776 91.0063439,24.7229535 L88.1946292,27.5485256 L88.1944649,27.5483605 L88.1944649,27.5483054 L85.9406558,25.2834435 C86.5706552,24.4980088 86.9464635,23.5051361 86.9464635,22.4214266 C86.9464635,19.8941293 84.9044438,17.8420455 82.3958958,17.8420455 C81.3171178,17.8420455 80.3231431,18.219706 79.5416152,18.8531956 L77.8391377,17.1359965 L80.6748471,14.285871 C80.7656218,14.1946489 80.8200757,14.066927 80.8200757,13.9392051 C80.8200757,13.8050971 80.7656218,13.6769898 80.6748471,13.5857127 L77.4146825,10.3095355 C77.2208618,10.1147595 76.9117787,10.1147595 76.717958,10.3095355 L73.8823582,13.1595509 L73.8821391,13.1593307 L73.8820843,13.1593857 L73.0400216,12.3132281 L75.875731,9.46310252 C76.0694969,9.27471269 76.0694969,8.95772011 75.875731,8.7629442 L72.6155664,5.48715235 C72.5247917,5.39548986 72.3976962,5.34076762 72.2701624,5.34076762 C72.1371503,5.34076762 72.0096713,5.39548986 71.9188419,5.48715235 L69.0831873,8.33683746 L69.0831325,8.33678241 L68.0350874,7.28951776 L68.0348683,7.28940766 L68.0348135,7.28935261 L70.8524994,4.46378051 C70.9432741,4.37255844 70.9918115,4.24483652 70.9918115,4.11711461 C70.9918115,3.9830066 70.9432741,3.85489932 70.8524994,3.76362219 L67.5864183,0.487444977 C67.3985142,0.292669058 67.0835145,0.292669058 66.8896938,0.487444977 L60.5273027,6.88157837 C60.3393985,7.07635429 60.3393985,7.39290645 60.5273027,7.5817367 L63.787029,10.857969 C63.8841585,10.9551367 64.011254,11.0039133 64.1387878,11.0039133 C64.2658833,11.0039133 64.3929789,10.9551367 64.4837536,10.857969 L67.3379794,7.98967609 L67.3381438,7.98951093 L67.3379794,7.98967609 L68.3861888,9.04305157 L68.3860245,9.04321672 L65.5565603,11.8806802 C65.4653474,11.9782883 65.4113318,12.1000646 65.4113318,12.2341175 C65.4113318,12.3618395 65.4653474,12.4895614 65.5565603,12.5812239 L68.8162867,15.8570157 C68.9134161,15.9546239 69.0405117,16.0034004 69.1679907,16.0034004 C69.2950862,16.0034004 69.41632,15.9546239 69.5134495,15.8570157 L72.3368875,13.0196624 L72.3369423,13.0196624 L72.3372162,13.0194972 L73.1791693,13.8660403 L73.1792241,13.8660403 L70.3557312,16.7034487 C70.1619106,16.8981695 70.1619106,17.208776 70.3557312,17.4039923 L73.6154576,20.6797842 C73.7066705,20.7773924 73.8337113,20.8261689 73.9671616,20.8261689 C74.0942571,20.8261689 74.2217909,20.7773924 74.3125656,20.6797842 L77.1360584,17.8424308 L78.8448359,19.553354 C78.2148365,20.3387336 77.8390282,21.3376071 77.8390282,22.4213716 C77.8390282,24.9422829 79.8809931,26.9943116 82.3958958,26.9943116 C83.4742904,26.9943116 84.4619651,26.6170915 85.243493,25.9836018 L85.2437669,25.983767 C85.2438217,25.9837119 85.2438765,25.9836569 85.2439861,25.9836018 L87.4977404,28.2489041 L87.4977951,28.2489592 L84.6434597,31.1169768 C84.5531233,31.2081438 84.5045859,31.3363062 84.5045859,31.4699738 C84.5045859,31.5981361 84.5531233,31.725858 84.6434597,31.8170801 L87.9099791,35.0933123 C88.0007538,35.1909205 88.1219328,35.2393117 88.2553283,35.2393117 C88.3883951,35.2393117 88.5095741,35.1909205 88.6066488,35.0933123 L88.6306984,35.0691443 L91.4546843,32.2312404 L92.4967032,33.2787803 L89.6732104,36.1161337 C89.5819974,36.2137418 89.5279818,36.3355181 89.5279818,36.4696261 C89.5279818,36.597348 89.5819974,36.7250699 89.6732104,36.8166773 L92.9329367,40.0925242 C93.0300662,40.1900774 93.1571617,40.238909 93.2846955,40.238909 C93.411791,40.238909 93.53297,40.1900774 93.6300995,40.0925242 L96.4535376,37.2551158 L97.2958194,38.1015488 L97.3015715,38.0957683 L97.2960385,38.1013286 L97.2960933,38.1013836 L94.4722169,40.9391774 C94.3814423,41.0303995 94.3269336,41.1581214 94.3269336,41.2921743 C94.3269336,41.4199513 94.3814423,41.5480586 94.4722169,41.6393357 L97.7323815,44.9150725 C97.8290728,45.0126807 97.9565518,45.0615123 98.0836473,45.0615123 C98.2111811,45.0615123 98.3319218,45.0126807 98.4290513,44.9150725 L104.791442,38.5213795 C104.985263,38.3329347 104.985263,38.0159971 104.791442,37.8212212" id="Fill-1" fill="#FFFFFF"></path>
                </g>
            </g>
        </g>
    </g>
</svg>